<svg xmlns="http://www.w3.org/2000/svg" version="1.1" xmlns:xlink="http://www.w3.org/1999/xlink" width="512" height="512" x="0" y="0" viewBox="0 0 24 24" style="enable-background:new 0 0 512 512" xml:space="preserve" class=""><g><path d="M21.5 22h-19A2.503 2.503 0 0 1 0 19.5v-2a.5.5 0 0 1 .5-.5H1c1.103 0 2-.897 2-2s-.897-2-2-2H.5a.5.5 0 0 1-.5-.5v-2C0 9.122 1.122 8 2.5 8h19c1.378 0 2.5 1.122 2.5 2.5v2a.5.5 0 0 1-.5.5H23a2.002 2.002 0 0 0-1.414 3.414c.377.378.879.586 1.413.586h.5a.5.5 0 0 1 .5.5v2A2.502 2.502 0 0 1 21.5 22zM1 18v1.5c0 .827.673 1.5 1.5 1.5h19c.827 0 1.5-.673 1.5-1.5V18h-.001a2.979 2.979 0 0 1-2.12-.878A2.982 2.982 0 0 1 20 15c0-1.654 1.346-3 3-3v-1.5c0-.827-.673-1.5-1.5-1.5h-19C1.673 9 1 9.673 1 10.5V12c1.654 0 3 1.346 3 3s-1.346 3-3 3z" fill="#64318b" opacity="1" data-original="#000000" class=""></path><path d="M8.5 10a.5.5 0 0 1-.5-.5v-1a.5.5 0 0 1 1 0v1a.5.5 0 0 1-.5.5zM8.5 18.461a.5.5 0 0 1-.5-.5V16.27a.5.5 0 0 1 1 0v1.692a.5.5 0 0 1-.5.499zm0-4.23a.5.5 0 0 1-.5-.5v-1.692a.5.5 0 0 1 1 0v1.692a.5.5 0 0 1-.5.5zM8.5 22a.5.5 0 0 1-.5-.5v-1a.5.5 0 0 1 1 0v1a.5.5 0 0 1-.5.5z" fill="#64318b" opacity="1" data-original="#000000" class=""></path><path d="M2.5 9a.498.498 0 0 1-.175-.968l15.9-5.937c.773-.29 1.681.144 1.945.923l1.803 5.321a.5.5 0 0 1-.947.321l-1.803-5.321a.511.511 0 0 0-.649-.308l-15.9 5.937A.482.482 0 0 1 2.5 9z" fill="#64318b" opacity="1" data-original="#000000" class=""></path></g></svg>