<svg id="Layer_1" height="300" viewBox="0 0 500 500" width="300" xmlns="http://www.w3.org/2000/svg" data-name="Layer 1" version="1.1" xmlns:xlink="http://www.w3.org/1999/xlink" xmlns:svgjs="http://svgjs.dev/svgjs"><g width="100%" height="100%" transform="matrix(1,0,0,1,0,0)"><g id="Ticket"><g id="Group"><path id="Shape" d="m479.17 270.83c6.25 0 10.42-4.17 10.42-10.42v-62.5c0-17.71-13.54-31.25-31.25-31.25h-13.55c3.13-14.58 12.5-27.08 27.08-31.25a10.67 10.67 0 0 0 6.25-5.21c1-2.08 1-5.21 0-8.33l-20.83-59.37c-3.12-8.33-8.33-14.58-15.62-17.71s-15.62-4.17-24-1l-355.17 122.88h-20.83c-17.71 0-31.25 13.54-31.25 31.25v62.5c0 6.25 4.17 10.42 10.42 10.42a41.67 41.67 0 1 1 0 83.33c-6.25 0-10.42 4.17-10.42 10.42v62.5c0 17.71 13.54 31.25 31.25 31.25h416.66c17.71 0 31.25-13.54 31.25-31.25v-62.5c0-6.25-4.17-10.42-10.42-10.42a41.67 41.67 0 0 1 0-83.33zm-54.17-207.29a11.5 11.5 0 0 1 8.33 0 10.67 10.67 0 0 1 5.21 6.25l17.71 50c-17.71 9.38-29.17 27.08-32.29 46.88h-297.96zm-393.75 363.54v-53.08c29.17-5.21 52.08-30.21 52.08-61.46s-22.91-56.29-52.08-61.54v-53.08c0-6.25 4.17-10.42 10.42-10.42h322.91v250h-322.91c-6.25 0-10.42-4.17-10.42-10.42zm437.5-53.08v53.13c0 6.25-4.17 10.42-10.42 10.42h-72.91v-250h72.92c6.25 0 10.42 4.17 10.42 10.42v53.03c-29.17 5.21-52.08 30.21-52.08 61.46s22.9 56.29 52.07 61.54z" fill="#14480f" fill-opacity="1" data-original-color="#000000ff" stroke="none" stroke-opacity="1"/><path id="Path" d="m145.83 270.83h62.5c6.25 0 10.42-4.17 10.42-10.42s-4.17-10.41-10.42-10.41h-62.5c-6.25 0-10.42 4.17-10.42 10.42s4.17 10.41 10.42 10.41z" fill="#14480f" fill-opacity="1" data-original-color="#000000ff" stroke="none" stroke-opacity="1"/><path id="Path-2" d="m281.25 302.08h-135.42c-6.25 0-10.42 4.17-10.42 10.42s4.17 10.42 10.42 10.42h135.42c6.25 0 10.42-4.17 10.42-10.42s-4.17-10.42-10.42-10.42z" data-name="Path" fill="#14480f" fill-opacity="1" data-original-color="#000000ff" stroke="none" stroke-opacity="1"/><path id="Path-3" d="m281.25 354.17h-135.42c-6.25 0-10.42 4.17-10.42 10.42s4.17 10.41 10.42 10.41h135.42c6.25 0 10.42-4.17 10.42-10.42s-4.17-10.41-10.42-10.41z" data-name="Path" fill="#14480f" fill-opacity="1" data-original-color="#000000ff" stroke="none" stroke-opacity="1"/></g></g></g></svg>