<svg width="131" height="131" viewBox="0 0 131 131" fill="none" xmlns="http://www.w3.org/2000/svg">
<g clip-path="url(#clip0_34_12)">
<path d="M10.9167 120.083H21.8333V131H10.9167V120.083Z" fill="black" fill-opacity="0.05"/>
<path d="M-1.04904e-05 109.167H10.9167V120.083H-1.04904e-05V109.167Z" fill="black" fill-opacity="0.05"/>
<path d="M10.9167 76.4166H21.8333V87.3333H10.9167V76.4166Z" fill="black" fill-opacity="0.05"/>
<path d="M-1.04904e-05 65.5001H10.9167V76.4167H-1.04904e-05V65.5001Z" fill="black" fill-opacity="0.05"/>
<path d="M10.9167 43.6666H21.8333V54.5833H10.9167V43.6666Z" fill="black" fill-opacity="0.05"/>
<path d="M-1.04904e-05 21.8333H10.9167V32.75H-1.04904e-05V21.8333Z" fill="black" fill-opacity="0.05"/>
<path d="M10.9167 10.9166H21.8333V21.8333H10.9167V10.9166Z" fill="black" fill-opacity="0.05"/>
<path d="M32.75 109.167H43.6667V120.083H32.75V109.167Z" fill="black" fill-opacity="0.05"/>
<path d="M32.75 76.4166H43.6667V87.3333H32.75V76.4166Z" fill="black" fill-opacity="0.05"/>
<path d="M21.8333 98.2501H32.75V109.167H21.8333V98.2501Z" fill="black" fill-opacity="0.05"/>
<path d="M21.8333 54.5833H32.75V65.5H21.8333V54.5833Z" fill="black" fill-opacity="0.05"/>
<path d="M32.75 43.6666H43.6667V54.5833H32.75V43.6666Z" fill="black" fill-opacity="0.05"/>
<path d="M32.75 21.8333H43.6667V32.75H32.75V21.8333Z" fill="black" fill-opacity="0.05"/>
<path d="M-1.04904e-05 8.10623e-05H10.9167V10.9167H-1.04904e-05V8.10623e-05Z" fill="black" fill-opacity="0.05"/>
<path d="M32.75 8.10623e-05H43.6667V10.9167H32.75V8.10623e-05Z" fill="black" fill-opacity="0.05"/>
<path d="M43.6667 120.083H54.5833V131H43.6667V120.083Z" fill="black" fill-opacity="0.05"/>
<path d="M43.6667 87.3333H54.5833V98.25H43.6667V87.3333Z" fill="black" fill-opacity="0.05"/>
<path d="M43.6667 54.5833H54.5833V65.5H43.6667V54.5833Z" fill="black" fill-opacity="0.05"/>
<path d="M43.6667 10.9166H54.5833V21.8333H43.6667V10.9166Z" fill="black" fill-opacity="0.05"/>
<path d="M54.5833 8.10623e-05H65.5V10.9167H54.5833V8.10623e-05Z" fill="black" fill-opacity="0.05"/>
<path d="M65.5 76.4166V65.4999H54.5833V87.3333H76.4167V76.4166H65.5Z" fill="black" fill-opacity="0.05"/>
<path d="M54.5833 32.7499H65.5V54.5833H54.5833V32.7499Z" fill="black" fill-opacity="0.05"/>
<path d="M65.5 54.5833H76.4167V65.5H65.5V54.5833Z" fill="black" fill-opacity="0.05"/>
<path d="M76.4167 21.8333H87.3333V32.75H76.4167V54.5833H87.3333V65.5H98.25V54.5833H109.167V65.5H120.083V76.4167H109.167V65.5H98.25V76.4167H87.3333V87.3333H76.4167V98.25H65.5V109.167H54.5833V120.083H65.5V131H87.3333V120.083H76.4167V109.167H87.3333V98.25H98.25V109.167H87.3333V120.083H98.25V131H109.167V120.083H120.083V131H131V109.167H120.083V98.25H109.167V87.3333H120.083V98.25H131V54.5833H120.083V43.6667H131V10.9167H120.083V0H98.25V10.9167H87.3333V0H76.4167V10.9167H65.5V32.75H76.4167V21.8333ZM120.083 32.75H109.167V43.6667H98.25V32.75H109.167V21.8333H120.083V32.75Z" fill="black" fill-opacity="0.05"/>
<path d="M76.4167 65.5001H87.3333V76.4167H76.4167V65.5001Z" fill="black" fill-opacity="0.05"/>
</g>
<defs>
<clipPath id="clip0_34_12">
<rect width="131" height="131" fill="white" transform="matrix(-1 0 0 1 131 0)"/>
</clipPath>
</defs>
</svg>
